<svg width="276" height="282" viewBox="0 0 276 282" fill="none" xmlns="http://www.w3.org/2000/svg">
<circle cx="123" cy="139" r="64" fill="#878787"/>
<circle cx="123" cy="139" r="32" fill="#212121"/>
<g filter="url(#filter0_f_216_627)">
<circle cx="122" cy="138" r="21" fill="#FAFF00"/>
<circle cx="122" cy="138" r="20.5" stroke="#FAFF00"/>
</g>
<g filter="url(#filter1_f_216_627)">
<line x1="137.412" y1="150.074" x2="145.074" y2="158.588" stroke="#FAFF00" stroke-width="2" stroke-linecap="round"/>
<line x1="139.327" y1="145.511" x2="150.511" y2="150.673" stroke="#FAFF00" stroke-width="2" stroke-linecap="round"/>
<line x1="141.199" y1="141.25" x2="152.25" y2="143.801" stroke="#FAFF00" stroke-width="2" stroke-linecap="round"/>
<line x1="141" y1="136" x2="153" y2="136" stroke="#FAFF00" stroke-width="2" stroke-linecap="round"/>
<line x1="139.687" y1="131.764" x2="151.764" y2="128.313" stroke="#FAFF00" stroke-width="2" stroke-linecap="round"/>
<line x1="137.307" y1="127.619" x2="146.619" y2="121.693" stroke="#FAFF00" stroke-width="2" stroke-linecap="round"/>
<line x1="134" y1="123.586" x2="141.586" y2="116" stroke="#FAFF00" stroke-width="2" stroke-linecap="round"/>
<line x1="129.462" y1="121.692" x2="133.692" y2="111.538" stroke="#FAFF00" stroke-width="2" stroke-linecap="round"/>
<line x1="123.338" y1="120.75" x2="126.75" y2="109.662" stroke="#FAFF00" stroke-width="2" stroke-linecap="round"/>
<line x1="118.073" y1="121.127" x2="118.932" y2="108.927" stroke="#FAFF00" stroke-width="2" stroke-linecap="round"/>
<line x1="113.861" y1="122.356" x2="112.161" y2="111.139" stroke="#FAFF00" stroke-width="2" stroke-linecap="round"/>
<line x1="109.695" y1="125.649" x2="105.454" y2="115.305" stroke="#FAFF00" stroke-width="2" stroke-linecap="round"/>
<line x1="106.589" y1="130.107" x2="98.9121" y2="121.411" stroke="#FAFF00" stroke-width="2" stroke-linecap="round"/>
<line x1="105.653" y1="133.625" x2="95.4298" y2="128.347" stroke="#FAFF00" stroke-width="2" stroke-linecap="round"/>
<line x1="104.86" y1="137.836" x2="93.8363" y2="136.14" stroke="#FAFF00" stroke-width="2" stroke-linecap="round"/>
<line x1="105.147" y1="143.128" x2="94.128" y2="144.658" stroke="#FAFF00" stroke-width="2" stroke-linecap="round"/>
<line x1="106.503" y1="147.324" x2="97.3242" y2="151.497" stroke="#FAFF00" stroke-width="2" stroke-linecap="round"/>
<line x1="109.844" y1="151.406" x2="101.406" y2="158.156" stroke="#FAFF00" stroke-width="2" stroke-linecap="round"/>
<line x1="114.083" y1="155.412" x2="107.412" y2="162.917" stroke="#FAFF00" stroke-width="2" stroke-linecap="round"/>
<line x1="118.399" y1="157.357" x2="113.357" y2="166.601" stroke="#FAFF00" stroke-width="2" stroke-linecap="round"/>
<line x1="122.92" y1="158.074" x2="122.074" y2="169.08" stroke="#FAFF00" stroke-width="2" stroke-linecap="round"/>
<line x1="129.074" y1="156.92" x2="129.92" y2="167.926" stroke="#FAFF00" stroke-width="2" stroke-linecap="round"/>
<line x1="134.236" y1="153.687" x2="137.687" y2="165.764" stroke="#FAFF00" stroke-width="2" stroke-linecap="round"/>
</g>
<line x1="137.412" y1="150.074" x2="145.074" y2="158.588" stroke="#FAFF00" stroke-width="2" stroke-linecap="round"/>
<line x1="139.327" y1="145.511" x2="150.511" y2="150.673" stroke="#FAFF00" stroke-width="2" stroke-linecap="round"/>
<line x1="141.199" y1="141.25" x2="152.25" y2="143.801" stroke="#FAFF00" stroke-width="2" stroke-linecap="round"/>
<line x1="141" y1="136" x2="153" y2="136" stroke="#FAFF00" stroke-width="2" stroke-linecap="round"/>
<line x1="139.687" y1="131.764" x2="151.764" y2="128.313" stroke="#FAFF00" stroke-width="2" stroke-linecap="round"/>
<line x1="137.307" y1="127.619" x2="146.619" y2="121.693" stroke="#FAFF00" stroke-width="2" stroke-linecap="round"/>
<line x1="134" y1="123.586" x2="141.586" y2="116" stroke="#FAFF00" stroke-width="2" stroke-linecap="round"/>
<line x1="129.462" y1="121.692" x2="133.692" y2="111.538" stroke="#FAFF00" stroke-width="2" stroke-linecap="round"/>
<line x1="123.338" y1="120.75" x2="126.75" y2="109.662" stroke="#FAFF00" stroke-width="2" stroke-linecap="round"/>
<line x1="118.073" y1="121.127" x2="118.932" y2="108.927" stroke="#FAFF00" stroke-width="2" stroke-linecap="round"/>
<line x1="113.861" y1="122.356" x2="112.161" y2="111.139" stroke="#FAFF00" stroke-width="2" stroke-linecap="round"/>
<line x1="109.695" y1="125.649" x2="105.454" y2="115.305" stroke="#FAFF00" stroke-width="2" stroke-linecap="round"/>
<line x1="106.589" y1="130.107" x2="98.9121" y2="121.411" stroke="#FAFF00" stroke-width="2" stroke-linecap="round"/>
<line x1="105.653" y1="133.625" x2="95.4298" y2="128.347" stroke="#FAFF00" stroke-width="2" stroke-linecap="round"/>
<line x1="104.86" y1="137.836" x2="93.8363" y2="136.14" stroke="#FAFF00" stroke-width="2" stroke-linecap="round"/>
<line x1="105.147" y1="143.128" x2="94.128" y2="144.658" stroke="#FAFF00" stroke-width="2" stroke-linecap="round"/>
<line x1="106.503" y1="147.324" x2="97.3242" y2="151.497" stroke="#FAFF00" stroke-width="2" stroke-linecap="round"/>
<line x1="109.844" y1="151.406" x2="101.406" y2="158.156" stroke="#FAFF00" stroke-width="2" stroke-linecap="round"/>
<line x1="114.083" y1="155.412" x2="107.412" y2="162.917" stroke="#FAFF00" stroke-width="2" stroke-linecap="round"/>
<line x1="118.399" y1="157.357" x2="113.357" y2="166.601" stroke="#FAFF00" stroke-width="2" stroke-linecap="round"/>
<line x1="122.92" y1="158.074" x2="122.074" y2="169.08" stroke="#FAFF00" stroke-width="2" stroke-linecap="round"/>
<line x1="129.074" y1="156.92" x2="129.92" y2="167.926" stroke="#FAFF00" stroke-width="2" stroke-linecap="round"/>
<line x1="134.236" y1="153.687" x2="137.687" y2="165.764" stroke="#FAFF00" stroke-width="2" stroke-linecap="round"/>
<g filter="url(#filter2_d_216_627)">
<rect x="77.0614" y="45" width="131" height="50" transform="rotate(9.27819 77.0614 45)" fill="#C0C0C0"/>
</g>
<g filter="url(#filter3_d_216_627)">
<rect x="52.0614" y="154" width="131" height="50" transform="rotate(9.27819 52.0614 154)" fill="#C0C0C0"/>
</g>
<path d="M54.6501 16.4396C53.7432 14.3954 56.3643 12.6306 57.9174 14.2398L86.1436 43.4863C87.0075 44.3814 86.8534 45.8395 85.8215 46.5342L74.0769 54.4419C73.0451 55.1367 71.6361 54.731 71.1317 53.5939L54.6501 16.4396Z" fill="#323232"/>
<path d="M19.4296 245.741C18.0112 247.319 20.3299 249.374 22.3694 248.347L54.362 232.233C55.5238 231.648 55.7299 230.333 54.7903 229.5L45.0477 220.864C44.1082 220.031 42.4877 220.092 41.6797 220.991L19.4296 245.741Z" fill="#323232"/>
<g filter="url(#filter4_d_216_627)">
<path fill-rule="evenodd" clip-rule="evenodd" d="M138 271C208.692 271 266 213.692 266 143C266 72.3076 208.692 15 138 15C67.3076 15 10 72.3076 10 143C10 213.692 67.3076 271 138 271ZM123 200C158.346 200 187 171.346 187 136C187 100.654 158.346 72 123 72C87.6538 72 59 100.654 59 136C59 171.346 87.6538 200 123 200Z" fill="#B8B8B8"/>
</g>
<line x1="25.7719" y1="243.795" x2="178.795" y2="256.228" stroke="#CACACA" stroke-width="7" stroke-linecap="round"/>
<path d="M178.792 258.024C177.373 259.602 179.692 261.657 181.732 260.63L213.724 244.516C214.886 243.931 215.092 242.616 214.152 241.783L204.41 233.147C203.47 232.314 201.85 232.375 201.042 233.274L178.792 258.024Z" fill="#323232"/>
<line x1="59.8848" y1="247.921" x2="139.921" y2="255.115" stroke="#323232" stroke-width="9" stroke-linecap="round"/>
<line x1="59.0954" y1="17.2202" x2="214.22" y2="46.9046" stroke="#CACACA" stroke-width="7" stroke-linecap="round"/>
<path d="M212.65 46.4396C211.743 44.3954 214.364 42.6306 215.917 44.2398L244.144 73.4863C245.007 74.3814 244.853 75.8395 243.822 76.5342L232.077 84.4419C231.045 85.1367 229.636 84.731 229.132 83.5939L212.65 46.4396Z" fill="#323232"/>
<line x1="93.2625" y1="24.4215" x2="168.421" y2="38.7375" stroke="#323232" stroke-width="9" stroke-linecap="round"/>
<path fill-rule="evenodd" clip-rule="evenodd" d="M266 143C266 174.707 254.471 203.721 235.377 226.08C224.403 218.548 220.403 193.012 226.569 164.704C233.082 134.802 248.624 112.431 262.307 112.351C264.72 122.171 266 132.436 266 143Z" fill="#797979"/>
<defs>
<filter id="filter0_f_216_627" x="60" y="76" width="124" height="124" filterUnits="userSpaceOnUse" color-interpolation-filters="sRGB">
<feFlood flood-opacity="0" result="BackgroundImageFix"/>
<feBlend mode="normal" in="SourceGraphic" in2="BackgroundImageFix" result="shape"/>
<feGaussianBlur stdDeviation="20.5" result="effect1_foregroundBlur_216_627"/>
</filter>
<filter id="filter1_f_216_627" x="88.8362" y="103.927" width="69.1638" height="70.1525" filterUnits="userSpaceOnUse" color-interpolation-filters="sRGB">
<feFlood flood-opacity="0" result="BackgroundImageFix"/>
<feBlend mode="normal" in="SourceGraphic" in2="BackgroundImageFix" result="shape"/>
<feGaussianBlur stdDeviation="2" result="effect1_foregroundBlur_216_627"/>
</filter>
<filter id="filter2_d_216_627" x="64" y="45" width="147.348" height="80.4668" filterUnits="userSpaceOnUse" color-interpolation-filters="sRGB">
<feFlood flood-opacity="0" result="BackgroundImageFix"/>
<feColorMatrix in="SourceAlpha" type="matrix" values="0 0 0 0 0 0 0 0 0 0 0 0 0 0 0 0 0 0 127 0" result="hardAlpha"/>
<feOffset dy="5"/>
<feGaussianBlur stdDeviation="2.5"/>
<feComposite in2="hardAlpha" operator="out"/>
<feColorMatrix type="matrix" values="0 0 0 0 0 0 0 0 0 0 0 0 0 0 0 0 0 0 0.25 0"/>
<feBlend mode="normal" in2="BackgroundImageFix" result="effect1_dropShadow_216_627"/>
<feBlend mode="normal" in="SourceGraphic" in2="effect1_dropShadow_216_627" result="shape"/>
</filter>
<filter id="filter3_d_216_627" x="39" y="154" width="147.348" height="80.4668" filterUnits="userSpaceOnUse" color-interpolation-filters="sRGB">
<feFlood flood-opacity="0" result="BackgroundImageFix"/>
<feColorMatrix in="SourceAlpha" type="matrix" values="0 0 0 0 0 0 0 0 0 0 0 0 0 0 0 0 0 0 127 0" result="hardAlpha"/>
<feOffset dy="5"/>
<feGaussianBlur stdDeviation="2.5"/>
<feComposite in2="hardAlpha" operator="out"/>
<feColorMatrix type="matrix" values="0 0 0 0 0 0 0 0 0 0 0 0 0 0 0 0 0 0 0.25 0"/>
<feBlend mode="normal" in2="BackgroundImageFix" result="effect1_dropShadow_216_627"/>
<feBlend mode="normal" in="SourceGraphic" in2="effect1_dropShadow_216_627" result="shape"/>
</filter>
<filter id="filter4_d_216_627" x="0" y="6" width="276" height="276" filterUnits="userSpaceOnUse" color-interpolation-filters="sRGB">
<feFlood flood-opacity="0" result="BackgroundImageFix"/>
<feColorMatrix in="SourceAlpha" type="matrix" values="0 0 0 0 0 0 0 0 0 0 0 0 0 0 0 0 0 0 127 0" result="hardAlpha"/>
<feOffset dy="1"/>
<feGaussianBlur stdDeviation="5"/>
<feComposite in2="hardAlpha" operator="out"/>
<feColorMatrix type="matrix" values="0 0 0 0 0 0 0 0 0 0 0 0 0 0 0 0 0 0 0.25 0"/>
<feBlend mode="normal" in2="BackgroundImageFix" result="effect1_dropShadow_216_627"/>
<feBlend mode="normal" in="SourceGraphic" in2="effect1_dropShadow_216_627" result="shape"/>
</filter>
</defs>
</svg>
