<svg width="492" height="1058" viewBox="0 0 492 1058" fill="none" xmlns="http://www.w3.org/2000/svg">
<g clip-path="url(#clip0_209_1172)">
<rect x="182" y="314" width="128" height="256" fill="#D9D9D9"/>
<rect x="184.5" y="314" width="10" height="256" fill="#D9D9D9"/>
<rect x="194.5" y="314" width="4" height="256" fill="#C9C9C9"/>
<rect x="198.5" y="314" width="16" height="256" fill="#D9D9D9"/>
<rect x="214.5" y="314" width="8" height="256" fill="#C9C9C9"/>
<rect x="222.5" y="314" width="20" height="256" fill="#D9D9D9"/>
<rect x="242.5" y="440.5" width="1" height="3" fill="#D9D9D9"/>
<rect x="243.5" y="314" width="16" height="256" fill="#C9C9C9"/>
<rect x="259.5" y="314" width="20" height="256" fill="#D9D9D9"/>
<rect x="279.5" y="314" width="8" height="256" fill="#C9C9C9"/>
<rect x="287.5" y="314" width="16" height="256" fill="#D9D9D9"/>
<rect x="303.5" y="314" width="4" height="256" fill="#C9C9C9"/>
<rect x="182" y="322" width="8" height="128" transform="rotate(-90 182 322)" fill="url(#paint0_linear_209_1172)"/>
<rect x="182" y="570" width="8" height="128" transform="rotate(-90 182 570)" fill="url(#paint1_linear_209_1172)"/>
</g>
<g clip-path="url(#clip1_209_1172)">
<rect x="342" y="602" width="128" height="256" fill="#D9D9D9"/>
<rect x="344.5" y="602" width="10" height="256" fill="#D9D9D9"/>
<rect x="354.5" y="602" width="4" height="256" fill="#C9C9C9"/>
<rect x="358.5" y="602" width="16" height="256" fill="#D9D9D9"/>
<rect x="374.5" y="602" width="8" height="256" fill="#C9C9C9"/>
<rect x="382.5" y="602" width="20" height="256" fill="#D9D9D9"/>
<rect x="402.5" y="728.5" width="1" height="3" fill="#D9D9D9"/>
<rect x="403.5" y="602" width="16" height="256" fill="#C9C9C9"/>
<rect x="419.5" y="602" width="20" height="256" fill="#D9D9D9"/>
<rect x="439.5" y="602" width="8" height="256" fill="#C9C9C9"/>
<rect x="447.5" y="602" width="16" height="256" fill="#D9D9D9"/>
<rect x="463.5" y="602" width="4" height="256" fill="#C9C9C9"/>
<rect x="342" y="610" width="8" height="128" transform="rotate(-90 342 610)" fill="url(#paint2_linear_209_1172)"/>
<rect x="342" y="858" width="8" height="128" transform="rotate(-90 342 858)" fill="url(#paint3_linear_209_1172)"/>
</g>
<g clip-path="url(#clip2_209_1172)">
<rect x="22" y="602" width="128" height="256" fill="#D9D9D9"/>
<rect x="24.5" y="602" width="10" height="256" fill="#D9D9D9"/>
<rect x="34.5" y="602" width="4" height="256" fill="#C9C9C9"/>
<rect x="38.5" y="602" width="16" height="256" fill="#D9D9D9"/>
<rect x="54.5" y="602" width="8" height="256" fill="#C9C9C9"/>
<rect x="62.5" y="602" width="20" height="256" fill="#D9D9D9"/>
<rect x="82.5" y="728.5" width="1" height="3" fill="#D9D9D9"/>
<rect x="83.5" y="602" width="16" height="256" fill="#C9C9C9"/>
<rect x="99.5" y="602" width="20" height="256" fill="#D9D9D9"/>
<rect x="119.5" y="602" width="8" height="256" fill="#C9C9C9"/>
<rect x="127.5" y="602" width="16" height="256" fill="#D9D9D9"/>
<rect x="143.5" y="602" width="4" height="256" fill="#C9C9C9"/>
<rect x="22" y="610" width="8" height="128" transform="rotate(-90 22 610)" fill="url(#paint4_linear_209_1172)"/>
<rect x="22" y="858" width="8" height="128" transform="rotate(-90 22 858)" fill="url(#paint5_linear_209_1172)"/>
</g>
<g clip-path="url(#clip3_209_1172)">
<rect x="182" y="602" width="128" height="256" fill="#D9D9D9"/>
<rect x="184.5" y="602" width="10" height="256" fill="#D9D9D9"/>
<rect x="194.5" y="602" width="4" height="256" fill="#C9C9C9"/>
<rect x="198.5" y="602" width="16" height="256" fill="#D9D9D9"/>
<rect x="214.5" y="602" width="8" height="256" fill="#C9C9C9"/>
<rect x="222.5" y="602" width="20" height="256" fill="#D9D9D9"/>
<rect x="242.5" y="728.5" width="1" height="3" fill="#D9D9D9"/>
<rect x="243.5" y="602" width="16" height="256" fill="#C9C9C9"/>
<rect x="259.5" y="602" width="20" height="256" fill="#D9D9D9"/>
<rect x="279.5" y="602" width="8" height="256" fill="#C9C9C9"/>
<rect x="287.5" y="602" width="16" height="256" fill="#D9D9D9"/>
<rect x="303.5" y="602" width="4" height="256" fill="#C9C9C9"/>
<rect x="182" y="610" width="8" height="128" transform="rotate(-90 182 610)" fill="url(#paint6_linear_209_1172)"/>
<rect x="182" y="858" width="8" height="128" transform="rotate(-90 182 858)" fill="url(#paint7_linear_209_1172)"/>
</g>
<path fill-rule="evenodd" clip-rule="evenodd" d="M129.351 520.809C137.806 514.927 149.262 518.805 149.382 527.589L150 572.643V602.978L22.2188 603.012V603.317C21.354 599.353 23.1031 594.727 27.6132 591.59L129.351 520.809Z" fill="white"/>
<path d="M22.0002 603V598C22.0002 596.343 23.3434 595 25.0002 595H150V603H22.0002Z" fill="url(#paint8_linear_209_1172)"/>
<path fill-rule="evenodd" clip-rule="evenodd" d="M362.648 520.809C354.194 514.927 342.737 518.805 342.617 527.588L341.999 572.648V602.978L469.786 603.013V603.317C470.651 599.354 468.902 594.728 464.391 591.59L362.648 520.809Z" fill="white"/>
<path d="M342 603V595H467C468.657 595 470 596.343 470 598V603H342Z" fill="url(#paint9_linear_209_1172)"/>
<rect x="22" y="858" width="128" height="64" fill="white"/>
<rect x="24.5" y="858" width="10" height="64" fill="#D9D9D9"/>
<rect x="34.5" y="858" width="4" height="64" fill="#C9C9C9"/>
<rect x="38.5" y="858" width="16" height="64" fill="#D9D9D9"/>
<rect x="54.5" y="858" width="8" height="64" fill="#C9C9C9"/>
<rect x="62.5" y="858" width="20" height="64" fill="#D9D9D9"/>
<rect x="82.5" y="858" width="1" height="64" fill="#D9D9D9"/>
<rect x="83.5" y="858" width="16" height="64" fill="#C9C9C9"/>
<rect x="99.5" y="858" width="20" height="64" fill="#D9D9D9"/>
<rect x="119.5" y="858" width="8" height="64" fill="#C9C9C9"/>
<rect x="127.5" y="858" width="16" height="64" fill="#D9D9D9"/>
<rect x="143.5" y="858" width="4" height="64" fill="#C9C9C9"/>
<rect x="22" y="866" width="8" height="128" transform="rotate(-90 22 866)" fill="url(#paint10_linear_209_1172)"/>
<rect x="22" y="922" width="8" height="128" transform="rotate(-90 22 922)" fill="url(#paint11_linear_209_1172)"/>
<rect x="182" y="858" width="128" height="64" fill="white"/>
<rect x="184.5" y="858" width="10" height="64" fill="#D9D9D9"/>
<rect x="194.5" y="858" width="4" height="64" fill="#C9C9C9"/>
<rect x="198.5" y="858" width="16" height="64" fill="#D9D9D9"/>
<rect x="214.5" y="858" width="8" height="64" fill="#C9C9C9"/>
<rect x="222.5" y="858" width="20" height="64" fill="#D9D9D9"/>
<rect x="242.5" y="858" width="1" height="64" fill="#D9D9D9"/>
<rect x="243.5" y="858" width="16" height="64" fill="#C9C9C9"/>
<rect x="259.5" y="858" width="20" height="64" fill="#D9D9D9"/>
<rect x="279.5" y="858" width="8" height="64" fill="#C9C9C9"/>
<rect x="287.5" y="858" width="16" height="64" fill="#D9D9D9"/>
<rect x="303.5" y="858" width="4" height="64" fill="#C9C9C9"/>
<rect x="182" y="866" width="8" height="128" transform="rotate(-90 182 866)" fill="url(#paint12_linear_209_1172)"/>
<rect x="182" y="922" width="8" height="128" transform="rotate(-90 182 922)" fill="url(#paint13_linear_209_1172)"/>
<rect x="342" y="858" width="128" height="64" fill="white"/>
<rect x="344.5" y="858" width="10" height="64" fill="#D9D9D9"/>
<rect x="354.5" y="858" width="4" height="64" fill="#C9C9C9"/>
<rect x="358.5" y="858" width="16" height="64" fill="#D9D9D9"/>
<rect x="374.5" y="858" width="8" height="64" fill="#C9C9C9"/>
<rect x="382.5" y="858" width="20" height="64" fill="#D9D9D9"/>
<rect x="402.5" y="858" width="1" height="64" fill="#D9D9D9"/>
<rect x="403.5" y="858" width="16" height="64" fill="#C9C9C9"/>
<rect x="419.5" y="858" width="20" height="64" fill="#D9D9D9"/>
<rect x="439.5" y="858" width="8" height="64" fill="#C9C9C9"/>
<rect x="447.5" y="858" width="16" height="64" fill="#D9D9D9"/>
<rect x="463.5" y="858" width="4" height="64" fill="#C9C9C9"/>
<rect x="342" y="866" width="8" height="128" transform="rotate(-90 342 866)" fill="url(#paint14_linear_209_1172)"/>
<rect x="342" y="922" width="8" height="128" transform="rotate(-90 342 922)" fill="url(#paint15_linear_209_1172)"/>
<rect x="182" y="250" width="128" height="64" fill="white"/>
<rect x="184.5" y="250" width="10" height="64" fill="#D9D9D9"/>
<rect x="194.5" y="250" width="4" height="64" fill="#C9C9C9"/>
<rect x="198.5" y="250" width="16" height="64" fill="#D9D9D9"/>
<rect x="214.5" y="250" width="8" height="64" fill="#C9C9C9"/>
<rect x="222.5" y="250" width="20" height="64" fill="#D9D9D9"/>
<rect x="242.5" y="250" width="1" height="64" fill="#D9D9D9"/>
<rect x="243.5" y="250" width="16" height="64" fill="#C9C9C9"/>
<rect x="259.5" y="250" width="20" height="64" fill="#D9D9D9"/>
<rect x="279.5" y="250" width="8" height="64" fill="#C9C9C9"/>
<rect x="287.5" y="250" width="16" height="64" fill="#D9D9D9"/>
<rect x="303.5" y="250" width="4" height="64" fill="#C9C9C9"/>
<rect x="182" y="258" width="8" height="128" transform="rotate(-90 182 258)" fill="url(#paint16_linear_209_1172)"/>
<rect x="182" y="314" width="8" height="128" transform="rotate(-90 182 314)" fill="url(#paint17_linear_209_1172)"/>
<rect x="182" y="218" width="128" height="32" fill="white"/>
<rect x="184.5" y="218" width="10" height="32" fill="#D9D9D9"/>
<rect x="194.5" y="218" width="4" height="32" fill="#C9C9C9"/>
<rect x="198.5" y="218" width="16" height="32" fill="#D9D9D9"/>
<rect x="214.5" y="218" width="8" height="32" fill="#C9C9C9"/>
<rect x="222.5" y="218" width="20" height="32" fill="#D9D9D9"/>
<rect x="242.5" y="218" width="1" height="32" fill="#D9D9D9"/>
<rect x="243.5" y="218" width="16" height="32" fill="#C9C9C9"/>
<rect x="259.5" y="218" width="20" height="32" fill="#D9D9D9"/>
<rect x="279.5" y="218" width="8" height="32" fill="#C9C9C9"/>
<rect x="287.5" y="218" width="16" height="32" fill="#D9D9D9"/>
<rect x="303.5" y="218" width="4" height="32" fill="#C9C9C9"/>
<rect x="182" y="226" width="8" height="128" transform="rotate(-90 182 226)" fill="url(#paint18_linear_209_1172)"/>
<rect x="182" y="250" width="8" height="128" transform="rotate(-90 182 250)" fill="url(#paint19_linear_209_1172)"/>
<rect x="182" y="570" width="128" height="32" fill="white"/>
<rect x="184.5" y="570" width="10" height="32" fill="#D9D9D9"/>
<rect x="194.5" y="570" width="4" height="32" fill="#C9C9C9"/>
<rect x="198.5" y="570" width="16" height="32" fill="#D9D9D9"/>
<rect x="214.5" y="570" width="8" height="32" fill="#C9C9C9"/>
<rect x="222.5" y="570" width="20" height="32" fill="#D9D9D9"/>
<rect x="242.5" y="570" width="1" height="32" fill="#D9D9D9"/>
<rect x="243.5" y="570" width="16" height="32" fill="#C9C9C9"/>
<rect x="259.5" y="570" width="20" height="32" fill="#D9D9D9"/>
<rect x="279.5" y="570" width="8" height="32" fill="#C9C9C9"/>
<rect x="287.5" y="570" width="16" height="32" fill="#D9D9D9"/>
<rect x="303.5" y="570" width="4" height="32" fill="#C9C9C9"/>
<rect x="182" y="578" width="8" height="128" transform="rotate(-90 182 578)" fill="url(#paint20_linear_209_1172)"/>
<rect x="182" y="602" width="8" height="128" transform="rotate(-90 182 602)" fill="url(#paint21_linear_209_1172)"/>
<path fill-rule="evenodd" clip-rule="evenodd" d="M111.859 1057.77C106.044 1025.19 96.5962 1004 85.9293 1004C75.2624 1004 65.8144 1025.19 59.9999 1057.77H111.859Z" fill="#2D2D2D"/>
<rect x="54" y="954" width="64" height="64" fill="white"/>
<rect x="54" y="954" width="7" height="64" fill="#C9C9C9"/>
<rect x="61" y="954" width="20" height="64" fill="#D9D9D9"/>
<rect x="81" y="954" width="1" height="64" fill="#D9D9D9"/>
<rect x="82" y="954" width="16" height="64" fill="#C9C9C9"/>
<rect x="98" y="954" width="20" height="64" fill="#D9D9D9"/>
<rect x="22" y="930" width="8" height="128" transform="rotate(-90 22 930)" fill="url(#paint22_linear_209_1172)"/>
<rect x="22" y="954" width="8" height="128" transform="rotate(-90 22 954)" fill="url(#paint23_linear_209_1172)"/>
<rect x="54" y="962" width="8" height="64" transform="rotate(-90 54 962)" fill="url(#paint24_linear_209_1172)"/>
<rect x="54" y="1018" width="8" height="64" transform="rotate(-90 54 1018)" fill="url(#paint25_linear_209_1172)"/>
<rect x="22" y="922" width="128" height="32" fill="#D9D9D9"/>
<rect x="24.5" y="922" width="10" height="32" fill="#D9D9D9"/>
<rect x="34.5" y="922" width="4" height="32" fill="#C9C9C9"/>
<rect x="38.5" y="922" width="16" height="32" fill="#D9D9D9"/>
<rect x="54.5" y="922" width="8" height="32" fill="#C9C9C9"/>
<rect x="62.5" y="922" width="20" height="32" fill="#D9D9D9"/>
<rect x="82.5" y="922" width="1" height="32" fill="#D9D9D9"/>
<rect x="83.5" y="922" width="16" height="32" fill="#C9C9C9"/>
<rect x="99.5" y="922" width="20" height="32" fill="#D9D9D9"/>
<rect x="119.5" y="922" width="8" height="32" fill="#C9C9C9"/>
<rect x="127.5" y="922" width="16" height="32" fill="#D9D9D9"/>
<rect x="143.5" y="922" width="4" height="32" fill="#C9C9C9"/>
<rect x="22" y="930" width="8" height="128" transform="rotate(-90 22 930)" fill="url(#paint26_linear_209_1172)"/>
<rect x="22" y="954" width="8" height="128" transform="rotate(-90 22 954)" fill="url(#paint27_linear_209_1172)"/>
<path fill-rule="evenodd" clip-rule="evenodd" d="M271.859 1057.77C266.044 1025.19 256.596 1004 245.929 1004C235.262 1004 225.814 1025.19 220 1057.77H271.859Z" fill="#2D2D2D"/>
<rect x="214" y="954" width="64" height="64" fill="white"/>
<rect x="214" y="954" width="7" height="64" fill="#C9C9C9"/>
<rect x="221" y="954" width="20" height="64" fill="#D9D9D9"/>
<rect x="241" y="954" width="1" height="64" fill="#D9D9D9"/>
<rect x="242" y="954" width="16" height="64" fill="#C9C9C9"/>
<rect x="258" y="954" width="20" height="64" fill="#D9D9D9"/>
<rect x="182" y="930" width="8" height="128" transform="rotate(-90 182 930)" fill="url(#paint28_linear_209_1172)"/>
<rect x="182" y="954" width="8" height="128" transform="rotate(-90 182 954)" fill="url(#paint29_linear_209_1172)"/>
<rect x="214" y="962" width="8" height="64" transform="rotate(-90 214 962)" fill="url(#paint30_linear_209_1172)"/>
<rect x="214" y="1018" width="8" height="64" transform="rotate(-90 214 1018)" fill="url(#paint31_linear_209_1172)"/>
<rect x="182" y="922" width="128" height="32" fill="#D9D9D9"/>
<rect x="184.5" y="922" width="10" height="32" fill="#D9D9D9"/>
<rect x="194.5" y="922" width="4" height="32" fill="#C9C9C9"/>
<rect x="198.5" y="922" width="16" height="32" fill="#D9D9D9"/>
<rect x="214.5" y="922" width="8" height="32" fill="#C9C9C9"/>
<rect x="222.5" y="922" width="20" height="32" fill="#D9D9D9"/>
<rect x="242.5" y="922" width="1" height="32" fill="#D9D9D9"/>
<rect x="243.5" y="922" width="16" height="32" fill="#C9C9C9"/>
<rect x="259.5" y="922" width="20" height="32" fill="#D9D9D9"/>
<rect x="279.5" y="922" width="8" height="32" fill="#C9C9C9"/>
<rect x="287.5" y="922" width="16" height="32" fill="#D9D9D9"/>
<rect x="303.5" y="922" width="4" height="32" fill="#C9C9C9"/>
<rect x="182" y="930" width="8" height="128" transform="rotate(-90 182 930)" fill="url(#paint32_linear_209_1172)"/>
<rect x="182" y="954" width="8" height="128" transform="rotate(-90 182 954)" fill="url(#paint33_linear_209_1172)"/>
<path fill-rule="evenodd" clip-rule="evenodd" d="M431.859 1057.77C426.044 1025.19 416.596 1004 405.929 1004C395.262 1004 385.814 1025.19 380 1057.77H431.859Z" fill="#2D2D2D"/>
<rect x="374" y="954" width="64" height="64" fill="white"/>
<rect x="374" y="954" width="7" height="64" fill="#C9C9C9"/>
<rect x="381" y="954" width="20" height="64" fill="#D9D9D9"/>
<rect x="401" y="954" width="1" height="64" fill="#D9D9D9"/>
<rect x="402" y="954" width="16" height="64" fill="#C9C9C9"/>
<rect x="418" y="954" width="20" height="64" fill="#D9D9D9"/>
<rect x="342" y="930" width="8" height="128" transform="rotate(-90 342 930)" fill="url(#paint34_linear_209_1172)"/>
<rect x="342" y="954" width="8" height="128" transform="rotate(-90 342 954)" fill="url(#paint35_linear_209_1172)"/>
<rect x="374" y="962" width="8" height="64" transform="rotate(-90 374 962)" fill="url(#paint36_linear_209_1172)"/>
<rect x="374" y="1018" width="8" height="64" transform="rotate(-90 374 1018)" fill="url(#paint37_linear_209_1172)"/>
<rect x="342" y="922" width="128" height="32" fill="#D9D9D9"/>
<rect x="344.5" y="922" width="10" height="32" fill="#D9D9D9"/>
<rect x="354.5" y="922" width="4" height="32" fill="#C9C9C9"/>
<rect x="358.5" y="922" width="16" height="32" fill="#D9D9D9"/>
<rect x="374.5" y="922" width="8" height="32" fill="#C9C9C9"/>
<rect x="382.5" y="922" width="20" height="32" fill="#D9D9D9"/>
<rect x="402.5" y="922" width="1" height="32" fill="#D9D9D9"/>
<rect x="403.5" y="922" width="16" height="32" fill="#C9C9C9"/>
<rect x="419.5" y="922" width="20" height="32" fill="#D9D9D9"/>
<rect x="439.5" y="922" width="8" height="32" fill="#C9C9C9"/>
<rect x="447.5" y="922" width="16" height="32" fill="#D9D9D9"/>
<rect x="463.5" y="922" width="4" height="32" fill="#C9C9C9"/>
<rect x="342" y="930" width="8" height="128" transform="rotate(-90 342 930)" fill="url(#paint38_linear_209_1172)"/>
<rect x="342" y="954" width="8" height="128" transform="rotate(-90 342 954)" fill="url(#paint39_linear_209_1172)"/>
<rect x="150" y="698" width="10" height="64" fill="white"/>
<rect x="172" y="698" width="10" height="64" fill="white"/>
<rect x="160" y="714" width="6" height="32" fill="white"/>
<rect x="166" y="714" width="6" height="32" fill="white"/>
<rect x="310" y="698" width="10" height="64" fill="white"/>
<rect x="332" y="698" width="10" height="64" fill="white"/>
<rect x="320" y="714" width="6" height="32" fill="white"/>
<rect x="326" y="714" width="6" height="32" fill="white"/>
<rect x="470" y="874" width="16" height="32" fill="white"/>
<path fill-rule="evenodd" clip-rule="evenodd" d="M479 900C476.791 900 475 907.163 475 916H483C483 907.163 481.209 900 479 900Z" fill="white"/>
<path fill-rule="evenodd" clip-rule="evenodd" d="M479 879C481.209 879 483 871.837 483 863H475C475 871.837 476.791 879 479 879Z" fill="white"/>
<ellipse cx="479" cy="890" rx="4" ry="8" fill="white"/>
<path fill-rule="evenodd" clip-rule="evenodd" d="M492 899.095V882.905C486.672 884.365 483 887.441 483 891C483 894.559 486.672 897.635 492 899.095Z" fill="white"/>
<rect x="22" y="905" width="16" height="32" transform="rotate(-180 22 905)" fill="white"/>
<path fill-rule="evenodd" clip-rule="evenodd" d="M13 879C15.2091 879 17 871.837 17 863H9C9 871.837 10.7909 879 13 879Z" fill="white"/>
<path fill-rule="evenodd" clip-rule="evenodd" d="M13 900C10.7909 900 9 907.163 9 916H17C17 907.163 15.2091 900 13 900Z" fill="white"/>
<ellipse cx="13" cy="889" rx="4" ry="8" transform="rotate(-180 13 889)" fill="white"/>
<path fill-rule="evenodd" clip-rule="evenodd" d="M0 879.905L0 896.095C5.32847 894.635 9 891.559 9 888C9 884.441 5.32847 881.365 0 879.905Z" fill="white"/>
<rect x="310" y="400" width="16" height="32" fill="white"/>
<path fill-rule="evenodd" clip-rule="evenodd" d="M319 426C316.791 426 315 433.163 315 442H323C323 433.163 321.209 426 319 426Z" fill="white"/>
<path fill-rule="evenodd" clip-rule="evenodd" d="M319 405C321.209 405 323 397.837 323 389H315C315 397.837 316.791 405 319 405Z" fill="white"/>
<ellipse cx="319" cy="416" rx="4" ry="8" fill="white"/>
<path fill-rule="evenodd" clip-rule="evenodd" d="M332 425.095V408.905C326.672 410.365 323 413.441 323 417C323 420.559 326.672 423.635 332 425.095Z" fill="white"/>
<rect x="182" y="432" width="16" height="32" transform="rotate(-180 182 432)" fill="white"/>
<path fill-rule="evenodd" clip-rule="evenodd" d="M173 406C175.209 406 177 398.837 177 390H169C169 398.837 170.791 406 173 406Z" fill="white"/>
<path fill-rule="evenodd" clip-rule="evenodd" d="M173 427C170.791 427 169 434.163 169 443H177C177 434.163 175.209 427 173 427Z" fill="white"/>
<ellipse cx="173" cy="416" rx="4" ry="8" transform="rotate(-180 173 416)" fill="white"/>
<path fill-rule="evenodd" clip-rule="evenodd" d="M160 406.905V423.095C165.328 421.635 169 418.559 169 415C169 411.441 165.328 408.365 160 406.905Z" fill="white"/>
<path fill-rule="evenodd" clip-rule="evenodd" d="M213.919 118L182 186.65V218.5H310V186.65L278.081 118H213.919Z" fill="white"/>
<rect x="214" y="88" width="64" height="30" fill="white"/>
<path d="M238.519 19.7533C241.128 12.8646 250.872 12.8646 253.481 19.7533L277.404 82.9165C279.386 88.1505 275.519 93.75 269.923 93.75H222.077C216.481 93.75 212.614 88.1505 214.596 82.9165L238.519 19.7533Z" fill="white"/>
<rect x="214" y="85" width="64" height="3" fill="white"/>
<rect x="214" y="94" width="8" height="64" transform="rotate(-90 214 94)" fill="url(#paint40_linear_209_1172)"/>
<defs>
<linearGradient id="paint0_linear_209_1172" x1="186" y1="322" x2="186" y2="450" gradientUnits="userSpaceOnUse">
<stop stop-color="#6B6B6B"/>
<stop offset="0.385417" stop-color="#B5B5B5"/>
<stop offset="0.604167" stop-color="#B5B5B5"/>
<stop offset="1" stop-color="#6B6B6B"/>
</linearGradient>
<linearGradient id="paint1_linear_209_1172" x1="186" y1="570" x2="186" y2="698" gradientUnits="userSpaceOnUse">
<stop stop-color="#6B6B6B"/>
<stop offset="0.385417" stop-color="#B5B5B5"/>
<stop offset="0.604167" stop-color="#B5B5B5"/>
<stop offset="1" stop-color="#6B6B6B"/>
</linearGradient>
<linearGradient id="paint2_linear_209_1172" x1="346" y1="610" x2="346" y2="738" gradientUnits="userSpaceOnUse">
<stop stop-color="#6B6B6B"/>
<stop offset="0.385417" stop-color="#B5B5B5"/>
<stop offset="0.604167" stop-color="#B5B5B5"/>
<stop offset="1" stop-color="#6B6B6B"/>
</linearGradient>
<linearGradient id="paint3_linear_209_1172" x1="346" y1="858" x2="346" y2="986" gradientUnits="userSpaceOnUse">
<stop stop-color="#6B6B6B"/>
<stop offset="0.385417" stop-color="#B5B5B5"/>
<stop offset="0.604167" stop-color="#B5B5B5"/>
<stop offset="1" stop-color="#6B6B6B"/>
</linearGradient>
<linearGradient id="paint4_linear_209_1172" x1="26" y1="610" x2="26" y2="738" gradientUnits="userSpaceOnUse">
<stop stop-color="#6B6B6B"/>
<stop offset="0.385417" stop-color="#B5B5B5"/>
<stop offset="0.604167" stop-color="#B5B5B5"/>
<stop offset="1" stop-color="#6B6B6B"/>
</linearGradient>
<linearGradient id="paint5_linear_209_1172" x1="26" y1="858" x2="26" y2="986" gradientUnits="userSpaceOnUse">
<stop stop-color="#6B6B6B"/>
<stop offset="0.385417" stop-color="#B5B5B5"/>
<stop offset="0.604167" stop-color="#B5B5B5"/>
<stop offset="1" stop-color="#6B6B6B"/>
</linearGradient>
<linearGradient id="paint6_linear_209_1172" x1="186" y1="610" x2="186" y2="738" gradientUnits="userSpaceOnUse">
<stop stop-color="#6B6B6B"/>
<stop offset="0.385417" stop-color="#B5B5B5"/>
<stop offset="0.604167" stop-color="#B5B5B5"/>
<stop offset="1" stop-color="#6B6B6B"/>
</linearGradient>
<linearGradient id="paint7_linear_209_1172" x1="186" y1="858" x2="186" y2="986" gradientUnits="userSpaceOnUse">
<stop stop-color="#6B6B6B"/>
<stop offset="0.385417" stop-color="#B5B5B5"/>
<stop offset="0.604167" stop-color="#B5B5B5"/>
<stop offset="1" stop-color="#6B6B6B"/>
</linearGradient>
<linearGradient id="paint8_linear_209_1172" x1="22.0002" y1="599" x2="150" y2="599" gradientUnits="userSpaceOnUse">
<stop stop-color="#6B6B6B"/>
<stop offset="0.385417" stop-color="#B5B5B5"/>
<stop offset="0.604167" stop-color="#B5B5B5"/>
<stop offset="1" stop-color="#6B6B6B"/>
</linearGradient>
<linearGradient id="paint9_linear_209_1172" x1="342" y1="599" x2="470" y2="599" gradientUnits="userSpaceOnUse">
<stop stop-color="#6B6B6B"/>
<stop offset="0.385417" stop-color="#B5B5B5"/>
<stop offset="0.604167" stop-color="#B5B5B5"/>
<stop offset="1" stop-color="#6B6B6B"/>
</linearGradient>
<linearGradient id="paint10_linear_209_1172" x1="26" y1="866" x2="26" y2="994" gradientUnits="userSpaceOnUse">
<stop stop-color="#6B6B6B"/>
<stop offset="0.385417" stop-color="#B5B5B5"/>
<stop offset="0.604167" stop-color="#B5B5B5"/>
<stop offset="1" stop-color="#6B6B6B"/>
</linearGradient>
<linearGradient id="paint11_linear_209_1172" x1="26" y1="922" x2="26" y2="1050" gradientUnits="userSpaceOnUse">
<stop stop-color="#6B6B6B"/>
<stop offset="0.385417" stop-color="#B5B5B5"/>
<stop offset="0.604167" stop-color="#B5B5B5"/>
<stop offset="1" stop-color="#6B6B6B"/>
</linearGradient>
<linearGradient id="paint12_linear_209_1172" x1="186" y1="866" x2="186" y2="994" gradientUnits="userSpaceOnUse">
<stop stop-color="#6B6B6B"/>
<stop offset="0.385417" stop-color="#B5B5B5"/>
<stop offset="0.604167" stop-color="#B5B5B5"/>
<stop offset="1" stop-color="#6B6B6B"/>
</linearGradient>
<linearGradient id="paint13_linear_209_1172" x1="186" y1="922" x2="186" y2="1050" gradientUnits="userSpaceOnUse">
<stop stop-color="#6B6B6B"/>
<stop offset="0.385417" stop-color="#B5B5B5"/>
<stop offset="0.604167" stop-color="#B5B5B5"/>
<stop offset="1" stop-color="#6B6B6B"/>
</linearGradient>
<linearGradient id="paint14_linear_209_1172" x1="346" y1="866" x2="346" y2="994" gradientUnits="userSpaceOnUse">
<stop stop-color="#6B6B6B"/>
<stop offset="0.385417" stop-color="#B5B5B5"/>
<stop offset="0.604167" stop-color="#B5B5B5"/>
<stop offset="1" stop-color="#6B6B6B"/>
</linearGradient>
<linearGradient id="paint15_linear_209_1172" x1="346" y1="922" x2="346" y2="1050" gradientUnits="userSpaceOnUse">
<stop stop-color="#6B6B6B"/>
<stop offset="0.385417" stop-color="#B5B5B5"/>
<stop offset="0.604167" stop-color="#B5B5B5"/>
<stop offset="1" stop-color="#6B6B6B"/>
</linearGradient>
<linearGradient id="paint16_linear_209_1172" x1="186" y1="258" x2="186" y2="386" gradientUnits="userSpaceOnUse">
<stop stop-color="#6B6B6B"/>
<stop offset="0.385417" stop-color="#B5B5B5"/>
<stop offset="0.604167" stop-color="#B5B5B5"/>
<stop offset="1" stop-color="#6B6B6B"/>
</linearGradient>
<linearGradient id="paint17_linear_209_1172" x1="186" y1="314" x2="186" y2="442" gradientUnits="userSpaceOnUse">
<stop stop-color="#6B6B6B"/>
<stop offset="0.385417" stop-color="#B5B5B5"/>
<stop offset="0.604167" stop-color="#B5B5B5"/>
<stop offset="1" stop-color="#6B6B6B"/>
</linearGradient>
<linearGradient id="paint18_linear_209_1172" x1="186" y1="226" x2="186" y2="354" gradientUnits="userSpaceOnUse">
<stop stop-color="#6B6B6B"/>
<stop offset="0.385417" stop-color="#B5B5B5"/>
<stop offset="0.604167" stop-color="#B5B5B5"/>
<stop offset="1" stop-color="#6B6B6B"/>
</linearGradient>
<linearGradient id="paint19_linear_209_1172" x1="186" y1="250" x2="186" y2="378" gradientUnits="userSpaceOnUse">
<stop stop-color="#6B6B6B"/>
<stop offset="0.385417" stop-color="#B5B5B5"/>
<stop offset="0.604167" stop-color="#B5B5B5"/>
<stop offset="1" stop-color="#6B6B6B"/>
</linearGradient>
<linearGradient id="paint20_linear_209_1172" x1="186" y1="578" x2="186" y2="706" gradientUnits="userSpaceOnUse">
<stop stop-color="#6B6B6B"/>
<stop offset="0.385417" stop-color="#B5B5B5"/>
<stop offset="0.604167" stop-color="#B5B5B5"/>
<stop offset="1" stop-color="#6B6B6B"/>
</linearGradient>
<linearGradient id="paint21_linear_209_1172" x1="186" y1="602" x2="186" y2="730" gradientUnits="userSpaceOnUse">
<stop stop-color="#6B6B6B"/>
<stop offset="0.385417" stop-color="#B5B5B5"/>
<stop offset="0.604167" stop-color="#B5B5B5"/>
<stop offset="1" stop-color="#6B6B6B"/>
</linearGradient>
<linearGradient id="paint22_linear_209_1172" x1="26" y1="930" x2="26" y2="1058" gradientUnits="userSpaceOnUse">
<stop stop-color="#6B6B6B"/>
<stop offset="0.385417" stop-color="#B5B5B5"/>
<stop offset="0.604167" stop-color="#B5B5B5"/>
<stop offset="1" stop-color="#6B6B6B"/>
</linearGradient>
<linearGradient id="paint23_linear_209_1172" x1="26" y1="954" x2="26" y2="1082" gradientUnits="userSpaceOnUse">
<stop stop-color="#6B6B6B"/>
<stop offset="0.385417" stop-color="#B5B5B5"/>
<stop offset="0.604167" stop-color="#B5B5B5"/>
<stop offset="1" stop-color="#6B6B6B"/>
</linearGradient>
<linearGradient id="paint24_linear_209_1172" x1="58" y1="962" x2="58" y2="1026" gradientUnits="userSpaceOnUse">
<stop stop-color="#6B6B6B"/>
<stop offset="0.385417" stop-color="#B5B5B5"/>
<stop offset="0.604167" stop-color="#B5B5B5"/>
<stop offset="1" stop-color="#6B6B6B"/>
</linearGradient>
<linearGradient id="paint25_linear_209_1172" x1="58" y1="1018" x2="58" y2="1082" gradientUnits="userSpaceOnUse">
<stop stop-color="#6B6B6B"/>
<stop offset="0.385417" stop-color="#B5B5B5"/>
<stop offset="0.604167" stop-color="#B5B5B5"/>
<stop offset="1" stop-color="#6B6B6B"/>
</linearGradient>
<linearGradient id="paint26_linear_209_1172" x1="26" y1="930" x2="26" y2="1058" gradientUnits="userSpaceOnUse">
<stop stop-color="#6B6B6B"/>
<stop offset="0.385417" stop-color="#B5B5B5"/>
<stop offset="0.604167" stop-color="#B5B5B5"/>
<stop offset="1" stop-color="#6B6B6B"/>
</linearGradient>
<linearGradient id="paint27_linear_209_1172" x1="26" y1="954" x2="26" y2="1082" gradientUnits="userSpaceOnUse">
<stop stop-color="#6B6B6B"/>
<stop offset="0.385417" stop-color="#B5B5B5"/>
<stop offset="0.604167" stop-color="#B5B5B5"/>
<stop offset="1" stop-color="#6B6B6B"/>
</linearGradient>
<linearGradient id="paint28_linear_209_1172" x1="186" y1="930" x2="186" y2="1058" gradientUnits="userSpaceOnUse">
<stop stop-color="#6B6B6B"/>
<stop offset="0.385417" stop-color="#B5B5B5"/>
<stop offset="0.604167" stop-color="#B5B5B5"/>
<stop offset="1" stop-color="#6B6B6B"/>
</linearGradient>
<linearGradient id="paint29_linear_209_1172" x1="186" y1="954" x2="186" y2="1082" gradientUnits="userSpaceOnUse">
<stop stop-color="#6B6B6B"/>
<stop offset="0.385417" stop-color="#B5B5B5"/>
<stop offset="0.604167" stop-color="#B5B5B5"/>
<stop offset="1" stop-color="#6B6B6B"/>
</linearGradient>
<linearGradient id="paint30_linear_209_1172" x1="218" y1="962" x2="218" y2="1026" gradientUnits="userSpaceOnUse">
<stop stop-color="#6B6B6B"/>
<stop offset="0.385417" stop-color="#B5B5B5"/>
<stop offset="0.604167" stop-color="#B5B5B5"/>
<stop offset="1" stop-color="#6B6B6B"/>
</linearGradient>
<linearGradient id="paint31_linear_209_1172" x1="218" y1="1018" x2="218" y2="1082" gradientUnits="userSpaceOnUse">
<stop stop-color="#6B6B6B"/>
<stop offset="0.385417" stop-color="#B5B5B5"/>
<stop offset="0.604167" stop-color="#B5B5B5"/>
<stop offset="1" stop-color="#6B6B6B"/>
</linearGradient>
<linearGradient id="paint32_linear_209_1172" x1="186" y1="930" x2="186" y2="1058" gradientUnits="userSpaceOnUse">
<stop stop-color="#6B6B6B"/>
<stop offset="0.385417" stop-color="#B5B5B5"/>
<stop offset="0.604167" stop-color="#B5B5B5"/>
<stop offset="1" stop-color="#6B6B6B"/>
</linearGradient>
<linearGradient id="paint33_linear_209_1172" x1="186" y1="954" x2="186" y2="1082" gradientUnits="userSpaceOnUse">
<stop stop-color="#6B6B6B"/>
<stop offset="0.385417" stop-color="#B5B5B5"/>
<stop offset="0.604167" stop-color="#B5B5B5"/>
<stop offset="1" stop-color="#6B6B6B"/>
</linearGradient>
<linearGradient id="paint34_linear_209_1172" x1="346" y1="930" x2="346" y2="1058" gradientUnits="userSpaceOnUse">
<stop stop-color="#6B6B6B"/>
<stop offset="0.385417" stop-color="#B5B5B5"/>
<stop offset="0.604167" stop-color="#B5B5B5"/>
<stop offset="1" stop-color="#6B6B6B"/>
</linearGradient>
<linearGradient id="paint35_linear_209_1172" x1="346" y1="954" x2="346" y2="1082" gradientUnits="userSpaceOnUse">
<stop stop-color="#6B6B6B"/>
<stop offset="0.385417" stop-color="#B5B5B5"/>
<stop offset="0.604167" stop-color="#B5B5B5"/>
<stop offset="1" stop-color="#6B6B6B"/>
</linearGradient>
<linearGradient id="paint36_linear_209_1172" x1="378" y1="962" x2="378" y2="1026" gradientUnits="userSpaceOnUse">
<stop stop-color="#6B6B6B"/>
<stop offset="0.385417" stop-color="#B5B5B5"/>
<stop offset="0.604167" stop-color="#B5B5B5"/>
<stop offset="1" stop-color="#6B6B6B"/>
</linearGradient>
<linearGradient id="paint37_linear_209_1172" x1="378" y1="1018" x2="378" y2="1082" gradientUnits="userSpaceOnUse">
<stop stop-color="#6B6B6B"/>
<stop offset="0.385417" stop-color="#B5B5B5"/>
<stop offset="0.604167" stop-color="#B5B5B5"/>
<stop offset="1" stop-color="#6B6B6B"/>
</linearGradient>
<linearGradient id="paint38_linear_209_1172" x1="346" y1="930" x2="346" y2="1058" gradientUnits="userSpaceOnUse">
<stop stop-color="#6B6B6B"/>
<stop offset="0.385417" stop-color="#B5B5B5"/>
<stop offset="0.604167" stop-color="#B5B5B5"/>
<stop offset="1" stop-color="#6B6B6B"/>
</linearGradient>
<linearGradient id="paint39_linear_209_1172" x1="346" y1="954" x2="346" y2="1082" gradientUnits="userSpaceOnUse">
<stop stop-color="#6B6B6B"/>
<stop offset="0.385417" stop-color="#B5B5B5"/>
<stop offset="0.604167" stop-color="#B5B5B5"/>
<stop offset="1" stop-color="#6B6B6B"/>
</linearGradient>
<linearGradient id="paint40_linear_209_1172" x1="218" y1="94" x2="218" y2="158" gradientUnits="userSpaceOnUse">
<stop stop-color="#6B6B6B"/>
<stop offset="0.385417" stop-color="#B5B5B5"/>
<stop offset="0.604167" stop-color="#B5B5B5"/>
<stop offset="1" stop-color="#6B6B6B"/>
</linearGradient>
<clipPath id="clip0_209_1172">
<rect width="128" height="256" fill="white" transform="translate(182 314)"/>
</clipPath>
<clipPath id="clip1_209_1172">
<rect width="128" height="256" fill="white" transform="translate(342 602)"/>
</clipPath>
<clipPath id="clip2_209_1172">
<rect width="128" height="256" fill="white" transform="translate(22 602)"/>
</clipPath>
<clipPath id="clip3_209_1172">
<rect width="128" height="256" fill="white" transform="translate(182 602)"/>
</clipPath>
</defs>
</svg>
